# xmcd
#
# Track frame offsets: 
#        150
#        28233
#        49981
#        70148
#        91884
#        119133
#        145444
#        169810
#        193160
#        220777
#        244323
#        273429
#
# Disc length: 3985 seconds
#
# Revision: 0
# Processed by: cddbd v1.5.2PL0 Copyright (c) Steve Scherf et al.
# Submitted via: ExactAudioCopy v0.99pb5
#
DISCID=c10f8f0c
DTITLE=김목경 Kim Mok Kyung - 김목경 | Live. Kim Mok Kyung
DYEAR=2010
DGENRE=Blues
TTITLE0=Let me play my blues
TTITLE1=멈추지 말아요(무당)
TTITLE2=Drown in my tears
TTITLE3=Don;t wory about me
TTITLE4=아름다웠네
TTITLE5=처음 그리고 그 다음에
TTITLE6=어느 60대 노부부의 이야기
TTITLE7=부르지마
TTITLE8=남은건 하나뿐
TTITLE9=플레이 더 블루스(Play the Blues)
TTITLE10=외로운 방랑자
TTITLE11=거봐 기타치지 말랬잖아
EXTD=
EXTT0=
EXTT1=
EXTT2=
EXTT3=
EXTT4=
EXTT5=
EXTT6=
EXTT7=
EXTT8=
EXTT9=
EXTT10=
EXTT11=
PLAYORDER=
